<svg width="201" height="95" viewBox="0 0 201 95" fill="none" xmlns="http://www.w3.org/2000/svg">
    <path fill-rule="evenodd" clip-rule="evenodd" d="M192.4 11C197.039 11 200.8 14.7608 200.8 19.4C200.8 24.0392 197.039 27.8 192.4 27.8H144.4C149.039 27.8 152.8 31.5608 152.8 36.2C152.8 40.8392 149.039 44.6 144.4 44.6H170.8C175.439 44.6 179.2 48.3608 179.2 53C179.2 57.6392 175.439 61.4 170.8 61.4H158.591C152.742 61.4 148 65.1608 148 69.8C148 72.8928 150.4 75.6928 155.2 78.2C159.839 78.2 163.6 81.9608 163.6 86.6C163.6 91.2392 159.839 95 155.2 95H55.6C50.9608 95 47.2 91.2392 47.2 86.6C47.2 81.9608 50.9608 78.2 55.6 78.2H8.80002C4.16083 78.2 0.400024 74.4392 0.400024 69.8C0.400024 65.1608 4.16083 61.4 8.80002 61.4H56.8C61.4392 61.4 65.2 57.6392 65.2 53C65.2 48.3608 61.4392 44.6 56.8 44.6H26.8C22.1608 44.6 18.4 40.8392 18.4 36.2C18.4 31.5608 22.1608 27.8 26.8 27.8H74.8C70.1608 27.8 66.4 24.0392 66.4 19.4C66.4 14.7608 70.1608 11 74.8 11H192.4ZM192.4 44.6C197.039 44.6 200.8 48.3608 200.8 53C200.8 57.6392 197.039 61.4 192.4 61.4C187.761 61.4 184 57.6392 184 53C184 48.3608 187.761 44.6 192.4 44.6Z" fill="#b1dc6f" fill-opacity="0.1"/>
    <path fill-rule="evenodd" clip-rule="evenodd" d="M27.943 17.6209L127.573 1.6708C129.536 1.3565 131.382 2.69322 131.697 4.65645C131.697 4.66038 131.698 4.66431 131.698 4.66824L141.445 66.8667C141.752 68.8264 140.416 70.6652 138.457 70.9788L38.8273 86.9288C36.8641 87.2431 35.0178 85.9064 34.7035 83.9432C34.7028 83.9393 34.7022 83.9353 34.7016 83.9314L24.9555 21.7329C24.6484 19.7732 25.9844 17.9344 27.943 17.6209Z" fill="white"/>
    <path d="M40.1938 86.5377C37.5698 86.9701 35.1057 85.1071 34.69 82.3766L25.66 23.0468C25.2444 20.3163 27.0346 17.7521 29.6586 17.3196L125.87 1.46224C128.494 1.02985 130.958 2.89282 131.374 5.62338C131.779 8.28389 132.101 10.4042 132.342 11.9843M133.028 16.4908C133.246 17.9221 133.436 19.1754 133.6 20.2509" stroke="#003D7C" stroke-width="2.5" stroke-linecap="round"/>
    <path fill-rule="evenodd" clip-rule="evenodd" d="M32.7725 20.3503L123.685 6.153C125.643 5.84717 127.48 7.18191 127.794 9.13892L136.627 64.1218C136.942 66.0848 135.606 67.9318 133.643 68.2472C133.638 68.248 133.633 68.2488 133.628 68.2496L42.7156 82.4469C40.7572 82.7528 38.9201 81.418 38.6057 79.461L29.7735 24.4781C29.4582 22.5151 30.7939 20.6681 32.757 20.3527C32.7622 20.3519 32.7673 20.3511 32.7725 20.3503Z" fill="#b1dc6f" fill-opacity="0.1"/>
    <path d="M148.9 25.7002H54.7C52.0491 25.7002 49.9 27.8492 49.9 30.5002V88.7002C49.9 91.3512 52.0491 93.5002 54.7 93.5002H148.9C151.551 93.5002 153.7 91.3512 153.7 88.7002V30.5002C153.7 27.8492 151.551 25.7002 148.9 25.7002Z" fill="white" stroke="#003D7C" stroke-width="2.5"/>
    <path d="M152.2 39.7998H51.4V56.5998H152.2V39.7998Z" fill="#b1dc6f" fill-opacity="0.1"/>
    <path d="M67.9469 39.7998H59.3112M153.005 39.7998H73.9971H153.005ZM145.805 55.3998H51.1979H145.805ZM94.075 78.1998H60.1056H94.075Z" stroke="#003D7C" stroke-width="2.5" stroke-linecap="round" stroke-linejoin="round"/>
</svg>