<svg width="81" height="81" viewBox="0 0 81 81" fill="none" xmlns="http://www.w3.org/2000/svg">
<path d="M37.6508 55.0516C36.735 55.0516 35.9208 54.6445 35.4121 54.0341L20.0465 37.3456C18.9271 36.1245 19.029 34.191 20.25 33.0717C21.471 31.9523 23.4045 32.0542 24.5239 33.2752L37.7525 47.6231L74.3857 11.0917C75.6068 9.87071 77.5403 9.87071 78.6596 11.0917C79.779 12.3128 79.8807 14.2463 78.6596 15.3656L39.7878 54.1358C39.2789 54.7464 38.465 55.0516 37.6508 55.0516Z" fill="#f93"/>
<path d="M40.5001 81C18.2148 81 0 62.7852 0 40.5001C0 18.215 18.2148 0 40.5001 0C42.2301 0 43.5528 1.3229 43.5528 3.05268C43.5528 4.78245 42.2299 6.10535 40.5001 6.10535C21.5728 6.10535 6.10555 21.5727 6.10555 40.4999C6.10555 59.4272 21.5728 74.8945 40.5001 74.8945C59.4273 74.8945 74.8947 59.4272 74.8947 40.4999C74.8947 38.7699 76.2176 37.4472 77.9473 37.4472C79.6771 37.4472 81 38.7701 81 40.4999C81 62.7852 62.7852 81 40.5001 81Z" fill="#b1dc6f"/>
</svg>
